<?xml version="1.0" encoding="UTF-8"?><svg id="Layer_2" xmlns="http://www.w3.org/2000/svg" viewBox="0 0 130 130"><defs><style>.cls-1{fill:#fff;}.cls-2{fill:#ff4500;}</style></defs><g id="Layer_1-2"><polygon class="cls-2" points="104 26 104 52 104 78 104 104 78 104 52 104 52 130 78 130 104 130 130 130 130 104 130 78 130 52 130 26 104 26"/><rect x="52" y="52" width="26" height="26"/><polygon class="cls-2" points="78 0 52 0 26 0 0 0 0 26 0 52 0 78 0 104 0 130 26 130 26 104 26 78 26 52 26 26 52 26 78 26 104 26 104 0 78 0"/><path class="cls-1" d="m78,26H26v104h26v-26h52V26h-26Zm0,52h-26v-26h26v26Z"/></g></svg>