<svg id="Layer_1" data-name="Layer 1" xmlns="http://www.w3.org/2000/svg" xmlns:xlink="http://www.w3.org/1999/xlink" viewBox="0 0 700 240"><defs><style>.cls-1{fill:#ff4500;}.cls-2{fill:#fff;}.cls-3{fill:#222;}</style><symbol id="reddit_round" data-name="reddit round" viewBox="0 0 75.706 24"><circle class="cls-1" cx="63.176" cy="4.588" r="2.824"/><path class="cls-3" d="M23.023,16.588a1.985,1.985,0,0,0,2.115-2.039A6.74,6.74,0,0,0,25,13.411a7.8,7.8,0,0,0-7.349-6.352c-4.191,0-7.588,3.792-7.588,8.47S13.456,24,17.647,24a7.531,7.531,0,0,0,5.865-2.454,1.633,1.633,0,0,0-.269-2.442,1.715,1.715,0,0,0-2.106.214,5.2,5.2,0,0,1-3.49,1.506c-2.134,0-3.914-1.819-4.323-4.236Zm-5.376-6.353a4.549,4.549,0,0,1,4.16,3.53h-8.32A4.549,4.549,0,0,1,17.647,10.235Z"/><path class="cls-3" d="M10.235,8.7A1.587,1.587,0,0,0,8.908,7.136,6.141,6.141,0,0,0,3.176,9.213V9A1.588,1.588,0,0,0,0,9V22a1.629,1.629,0,0,0,1.49,1.647,1.588,1.588,0,0,0,1.686-1.585V15.354a4.825,4.825,0,0,1,5.293-5.072,1.432,1.432,0,0,0,.314,0A1.587,1.587,0,0,0,10.235,8.7Z"/><path class="cls-3" d="M64.765,10.412a1.589,1.589,0,0,0-3.177,0V22.059a1.589,1.589,0,0,0,3.177,0Z"/><path class="cls-3" d="M41.118,1.588A1.588,1.588,0,0,0,39.529,0h0a1.588,1.588,0,0,0-1.588,1.588V8.681a5.538,5.538,0,0,0-4.059-1.622c-4.191,0-7.588,3.792-7.588,8.47S29.691,24,33.882,24a5.613,5.613,0,0,0,4.088-1.642,1.588,1.588,0,0,0,3.148-.3ZM33.882,20.824c-2.436,0-4.411-2.371-4.411-5.3s1.975-5.294,4.411-5.294,4.412,2.371,4.412,5.294S36.319,20.824,33.882,20.824Z"/><path class="cls-3" d="M57.706,1.588A1.588,1.588,0,0,0,56.118,0h0a1.588,1.588,0,0,0-1.589,1.588V8.681a5.537,5.537,0,0,0-4.058-1.622c-4.191,0-7.589,3.792-7.589,8.47S46.28,24,50.471,24a5.609,5.609,0,0,0,4.087-1.642,1.588,1.588,0,0,0,3.148-.3ZM50.471,20.824c-2.437,0-4.412-2.371-4.412-5.3s1.975-5.294,4.412-5.294,4.411,2.371,4.411,5.294S52.907,20.824,50.471,20.824Z"/><path class="cls-3" d="M72.834,22.059V10.235h1.412A1.444,1.444,0,0,0,75.7,8.918a1.412,1.412,0,0,0-1.409-1.506h-1.46V5.172a1.623,1.623,0,0,0-1.483-1.639,1.588,1.588,0,0,0-1.693,1.585V7.412H68.342A1.444,1.444,0,0,0,66.885,8.73a1.412,1.412,0,0,0,1.409,1.5h1.364V22.059a1.588,1.588,0,0,0,1.588,1.588h0A1.588,1.588,0,0,0,72.834,22.059Z"/></symbol><symbol id="icon_2" data-name="icon 2" viewBox="0 0 48 48"><circle class="cls-1" cx="24" cy="24" r="24"/><path class="cls-2" d="M40,24a3.5,3.5,0,0,0-5.927-2.518,17.139,17.139,0,0,0-9.36-2.969l1.594-7.5,5.209,1.108a2.5,2.5,0,1,0,.256-1.224L25.951,9.659a.625.625,0,0,0-.741.481l-1.78,8.37a17.189,17.189,0,0,0-9.5,2.966,3.5,3.5,0,1,0-3.852,5.715A6.9,6.9,0,0,0,10,28.25C10,33.635,16.264,38,24,38s14-4.365,14-9.75a6.942,6.942,0,0,0-.082-1.052A3.5,3.5,0,0,0,40,24ZM16,26.5A2.5,2.5,0,1,1,18.5,29,2.5,2.5,0,0,1,16,26.5Zm13.94,6.606c-1.706,1.7-4.976,1.837-5.937,1.837s-4.232-.133-5.936-1.837a.648.648,0,1,1,.917-.916c1.075,1.075,3.376,1.457,5.019,1.457s3.944-.382,5.022-1.458a.648.648,0,1,1,.915.917ZM29.5,29A2.5,2.5,0,1,1,32,26.5,2.5,2.5,0,0,1,29.5,29Z"/></symbol></defs><use width="75.706" height="24" transform="translate(273.123 54.004) scale(5.545)" xlink:href="#reddit_round"/><use width="48" height="48" transform="translate(7.484 8.992) scale(4.621)" xlink:href="#icon_2"/></svg>